<svg xmlns="http://www.w3.org/2000/svg" viewBox="0 0 90 90" fill="none" stroke="currentColor" stroke-width="2.4" stroke-linecap="round" stroke-linejoin="round"><path d="M58.4,17c-0.5-0.2-1-0.5-1.6-0.7c-0.1,0-0.2-0.1-0.4-0.1c-0.1,0-0.1-0.1-0.2-0.1c-1-0.4-1.9-0.7-1.9-0.7c-10.5-3.8-25.1-3.8-38.2-4.1c3.8,3.6,9.2,5.7,13.3,9.1c-6.8,9.2-13,18.9-19.2,28.6c0,0,9.6,7.3,15.1,12.3c3.8-3.5,7.4-8.5,11.6-12c4.9-3.2,5.6,1,5.6,1.8c0.7,9.4-4.1,25.1,1,32.9c16.4,0,28.1,0,44.5,0C78.9,58.3,81.8,27.4,58.4,17z"></path><path d="M8,51.9c-1.1,1.8-2.2,3.4-3.4,5.1c0,0-3.4,5-3.2,5.5c0.2,0.4,2.2,2.3,3.3,2.9c1.1,0.6,2.2,0.9,2.9,0.8c2.3-0.5,4.1-2.1,5.9-3.6c0.2-0.2,1.3-0.3,1.3,0.8c0,0.6-4.1,5.9-4.1,5.9c0.8,1,1.8,1.9,2.7,2.7c2.8-2.7,5.9-5,8.4-8C17.9,59.4,13,55.6,8,51.9z"></path></svg>